<?xml version="1.0" encoding="UTF-8" standalone="no"?>
<svg
   xmlns:dc="http://purl.org/dc/elements/1.1/"
   xmlns:cc="http://creativecommons.org/ns#"
   xmlns:rdf="http://www.w3.org/1999/02/22-rdf-syntax-ns#"
   xmlns:svg="http://www.w3.org/2000/svg"
   xmlns="http://www.w3.org/2000/svg"
   id="svg8"
   version="1.1"
   viewBox="0 0 61.331497 17.644058"
   height="17.644058mm"
   width="61.331497mm">
  <defs
     id="defs2" />
  <metadata
     id="metadata5">
    <rdf:RDF>
      <cc:Work
         rdf:about="">
        <dc:format>image/svg+xml</dc:format>
        <dc:type
           rdf:resource="http://purl.org/dc/dcmitype/StillImage" />
        <dc:title></dc:title>
      </cc:Work>
    </rdf:RDF>
  </metadata>
  <g
     transform="translate(-109.69049,-7.9299636)"
     id="layer1">
    <path
       transform="scale(0.26458333)"
       id="rect966"
       d="m 215.41406,38.878906 c -1.67887,0 -3.02929,1.350424 -3.02929,3.029297 v 15.550781 h 2.79882 v -1.367187 c 0,-1.225431 0.0761,-2.378679 0.22852,-3.460938 0.15241,-1.082259 0.38073,-2.092163 0.68555,-3.03125 0.30481,-0.939086 0.68535,-1.807601 1.14257,-2.603515 0.45723,-0.795915 0.99193,-1.519133 1.60157,-2.171875 0.60963,-0.6589 1.28614,-1.236294 2.03125,-1.730469 0.74511,-0.494175 1.55691,-0.906878 2.4375,-1.236328 0.88058,-0.32945 1.82964,-0.575512 2.8457,-0.740234 1.01606,-0.164726 2.10042,-0.248047 3.25195,-0.248047 1.55181,0 2.94224,0.07487 4.17383,0.222656 1.25622,0.147791 2.40297,0.320524 3.4375,0.517578 v 6.355469 h -0.36914 c -0.76358,-0.221686 -1.76255,-0.44433 -2.99414,-0.666016 -1.23159,-0.246318 -2.31399,-0.369143 -3.25,-0.36914 -1.49022,0 -2.77753,0.165517 -3.86133,0.498046 -1.0838,0.332529 -1.9652,0.831036 -2.64258,1.496094 -0.66505,0.652742 -1.16356,1.573235 -1.49609,2.761719 -0.33253,1.188483 -0.49805,2.644916 -0.49805,4.369141 v 1.404296 h 12.52539 v 5.837891 h -12.30468 v 30.634766 h 42.27929 c 1.67888,0 3.0293,-1.350424 3.0293,-3.029297 V 41.908203 c 0,-1.678873 -1.35042,-3.029297 -3.0293,-3.029297 z m 38.95703,13.205078 9.33203,2.431641 v 1.453125 l -7.19335,2.398438 7.19335,2.380859 v 1.445312 l -9.33203,2.457032 v -1.638672 l 7.22657,-1.712891 -7.22657,-2.330078 v -1.294922 l 7.22657,-2.390625 -7.22657,-1.621094 z m 3.97657,14.119141 h 0.85351 v 6.876953 c 0.57372,0 1.07501,-0.08709 1.50391,-0.259766 0.42332,-0.172669 0.77003,-0.408201 1.04297,-0.708984 0.26736,-0.289643 0.46788,-0.631869 0.60156,-1.027344 0.13368,-0.401044 0.20117,-0.841287 0.20117,-1.320312 0,-0.634987 -0.12435,-1.273505 -0.375,-1.914063 -0.25622,-0.646127 -0.50687,-1.105973 -0.75195,-1.378906 v -0.08398 h 1.71289 c 0.2228,0.529156 0.4082,1.069659 0.55859,1.621093 0.15039,0.551437 0.22656,1.131145 0.22657,1.738282 0,0.774238 -0.10558,1.464007 -0.31446,2.068359 -0.20888,0.604352 -0.5217,1.124129 -0.93945,1.558594 -0.42054,0.434465 -0.9294,0.75933 -1.52539,0.976562 -0.596,0.217233 -1.27933,0.326172 -2.05078,0.326172 -0.7631,0 -1.44699,-0.103062 -2.05274,-0.310547 -0.60574,-0.207484 -1.13364,-0.518624 -1.58203,-0.933593 -0.44839,-0.417755 -0.78362,-0.902521 -1.00781,-1.451172 -0.2242,-0.548651 -0.33594,-1.16225 -0.33594,-1.841797 0,-0.629417 0.0916,-1.185327 0.27539,-1.669922 0.18381,-0.484595 0.45855,-0.896554 0.82617,-1.236328 0.36763,-0.342559 0.81375,-0.600207 1.33594,-0.771484 0.52219,-0.17128 1.12011,-0.257813 1.79688,-0.257813 z m -0.70118,10.837891 h 6.05664 v 1.570312 h -5.3125 c -0.42887,0 -0.82993,0.02409 -1.20312,0.07422 -0.37876,0.05013 -0.67506,0.143662 -0.88672,0.277344 -0.23394,0.139251 -0.40618,0.339769 -0.51758,0.601562 -0.11697,0.261793 -0.17578,0.599824 -0.17578,1.017578 0,0.428895 0.1067,0.877818 0.31836,1.345703 0.21166,0.467886 0.48191,0.916809 0.81055,1.345704 h 6.96679 v 1.570312 h -9.33203 v -1.570312 h 1.03711 c -0.40661,-0.490166 -0.72475,-0.997899 -0.95312,-1.521485 -0.22837,-0.523586 -0.3418,-1.059892 -0.3418,-1.611328 0,-0.504091 0.0748,-0.94965 0.22656,-1.333984 0.15179,-0.384335 0.38003,-0.708079 0.6836,-0.972657 0.60713,-0.529156 1.48118,-0.792968 2.62304,-0.792969 z m 3.67579,11.455078 h 2.38085 v 1.996094 h -2.38085 z"
       style="opacity:1;fill:#ff8080;fill-opacity:1;stroke:none;stroke-width:1.00157475;stroke-miterlimit:4;stroke-dasharray:none;stroke-opacity:1" />
    <flowRoot
       transform="scale(0.26458333)"
       style="font-style:normal;font-weight:normal;font-size:40px;line-height:1.25;font-family:sans-serif;letter-spacing:0px;word-spacing:0px;fill:#000000;fill-opacity:1;stroke:none"
       id="flowRoot834"
       xml:space="preserve"><flowRegion
         id="flowRegion836"><rect
           y="308.33673"
           x="-151.01781"
           height="42.426407"
           width="94.449265"
           id="rect838" /></flowRegion><flowPara
         id="flowPara840">news</flowPara></flowRoot>    <path
       transform="scale(0.26458333)"
       id="path954"
       d="m 120.25,107.33398 c 0.0475,0.81721 0.11982,1.78275 0.21484,2.89454 0.095,1.10227 0.23157,1.97493 0.41211,2.62109 0.21856,0.76969 0.56173,1.39207 1.02735,1.86719 0.45611,0.47512 1.08682,0.71289 1.89453,0.71289 0.45611,0 0.85671,-0.0673 1.20117,-0.20508 0.34446,-0.13779 0.63243,-0.34552 0.86523,-0.62109 0.45612,-0.55114 0.68555,-1.39266 0.68555,-2.52344 0,-0.94074 -0.18188,-1.80088 -0.54297,-2.58008 -0.37059,-0.7792 -0.81109,-1.50085 -1.32422,-2.16602 z"
       style="opacity:1;fill:#e6e6e6;fill-opacity:1;stroke:none;stroke-width:1.00157475;stroke-miterlimit:4;stroke-dasharray:none;stroke-opacity:1" />
    <path
       transform="scale(0.26458333)"
       id="path941"
       d="M 77.941406,65.376953 56.785156,100.01953 97.857422,98.949219 62.28125,152.87695 H 125 c 4.94643,0 8.92773,-3.9813 8.92773,-8.92773 V 74.304688 c 0,-4.946429 -3.9813,-8.927735 -8.92773,-8.927735 z m 40.328124,5.568359 h 10.33399 V 73.625 h -9.06641 c -0.73169,0 -1.41607,0.04143 -2.05273,0.126953 -0.64617,0.08552 -1.14868,0.242646 -1.50977,0.470703 -0.3991,0.23756 -0.69472,0.580731 -0.88477,1.027344 -0.19955,0.446613 -0.29882,1.025601 -0.29882,1.738281 0,0.731685 0.17992,1.49672 0.54101,2.294922 0.36109,0.798202 0.82217,1.563237 1.38281,2.294922 h 11.88868 v 2.679687 h -22.17969 v -2.679687 h 8.02539 c -0.69368,-0.836212 -1.2354,-1.700524 -1.625,-2.59375 -0.3896,-0.893226 -0.58399,-1.811215 -0.58399,-2.751953 0,-0.859968 0.12974,-1.617772 0.38868,-2.273438 0.25894,-0.655665 0.64618,-1.208792 1.16406,-1.660156 0.51788,-0.451364 1.15054,-0.789943 1.89648,-1.015625 0.74594,-0.225682 1.60608,-0.337891 2.58008,-0.337891 z m 5.74414,17.160157 c 0.72694,0 1.3881,0.151423 1.98438,0.453125 0.59627,0.301701 1.12813,0.754019 1.59375,1.357422 0.46561,0.598651 0.81406,1.30737 1.04687,2.126953 0.23281,0.819582 0.34961,1.750502 0.34961,2.791015 0,1.178298 -0.13849,2.26175 -0.41406,3.25 -0.28507,0.978748 -0.5932,1.799676 -0.92578,2.464846 h -3.00782 v -0.14258 c 0.63667,-0.845714 1.1453,-1.786504 1.5254,-2.822266 0.37059,-1.035762 0.55468,-2.028275 0.55468,-2.978515 0,-1.178298 -0.19021,-2.100457 -0.57031,-2.765625 -0.19005,-0.332584 -0.4331,-0.581755 -0.73242,-0.748047 -0.29933,-0.166292 -0.6539,-0.248047 -1.0625,-0.248047 -0.62716,0 -1.1027,0.179924 -1.42578,0.541016 -0.32308,0.361091 -0.59812,1.053818 -0.82617,2.080078 -0.0855,0.380096 -0.1848,0.88039 -0.29883,1.498047 -0.11403,0.608153 -0.23806,1.164341 -0.3711,1.667968 -0.18529,0.698427 -0.41277,1.294515 -0.68359,1.791016 -0.27082,0.496501 -0.58507,0.892925 -0.94141,1.1875 -0.72218,0.579645 -1.60708,0.869145 -2.65234,0.869145 -0.65567,0 -1.27192,-0.13237 -1.85156,-0.39844 -0.57965,-0.275572 -1.09857,-0.689097 -1.55469,-1.240236 -0.44661,-0.532135 -0.79812,-1.208184 -1.05469,-2.025391 -0.26606,-0.826709 -0.39844,-1.746915 -0.39843,-2.763672 0,-0.95024 0.1179,-1.911614 0.35546,-2.880859 0.22806,-0.978748 0.50922,-1.791337 0.8418,-2.4375 h 2.86524 V 88.875 c -0.50363,0.684173 -0.92745,1.517346 -1.26954,2.496094 -0.35159,0.978747 -0.52734,1.938168 -0.52734,2.878906 0,0.978748 0.19022,1.805798 0.57031,2.480469 0.1853,0.337335 0.41737,0.589145 0.69531,0.757812 0.27795,0.168668 0.60207,0.253907 0.97266,0.253907 0.65567,-10e-7 1.14984,-0.204678 1.48242,-0.613282 0.33259,-0.399101 0.60345,-1.046227 0.8125,-1.939453 0.11403,-0.494125 0.22777,-1.04419 0.3418,-1.652344 0.11403,-0.617656 0.21943,-1.130459 0.31445,-1.539062 0.28508,-1.244815 0.77312,-2.204236 1.4668,-2.878906 0.35159,-0.337336 0.76094,-0.591098 1.22656,-0.759766 0.46562,-0.168668 0.98872,-0.253906 1.56836,-0.253906 z m -6.21484,16.562501 h 10.80469 v 2.66601 h -1.69727 c 0.16154,0.23756 0.39097,0.56015 0.68555,0.96875 0.28507,0.39911 0.51255,0.78983 0.68359,1.16993 0.21856,0.44661 0.39848,0.95941 0.54102,1.53906 0.15203,0.57965 0.22851,1.25986 0.22851,2.03906 0,0.71743 -0.11986,1.38013 -0.35742,1.98828 -0.23756,0.60816 -0.59324,1.16128 -1.06836,1.66016 -0.47512,0.49887 -1.01531,0.87361 -1.62109,1.12305 -0.60578,0.24943 -1.27724,0.37304 -2.01367,0.37304 -1.20681,0 -2.18069,-0.2564 -2.92188,-0.76953 -0.75069,-0.52263 -1.33997,-1.26291 -1.76758,-2.22266 -0.42761,-0.96924 -0.7171,-2.13334 -0.86914,-3.49218 -0.15204,-1.35885 -0.26578,-2.81856 -0.3418,-4.37696 h -0.41406 c -0.60815,0 -1.11066,0.10957 -1.50976,0.32813 -0.3991,0.20905 -0.71335,0.51301 -0.94141,0.91211 -0.21856,0.38009 -0.36539,0.837 -0.44141,1.36914 -0.076,0.53213 -0.11523,1.08832 -0.11523,1.66797 0,0.70318 0.0951,1.48684 0.28516,2.35156 0.18054,0.86472 0.44723,1.75795 0.79882,2.67969 v 0.14258 h -2.72265 c -0.14254,-0.52264 -0.29966,-1.27933 -0.47071,-2.26758 -0.17104,-0.98825 -0.25586,-1.96213 -0.25585,-2.92188 0,-1.12128 0.0951,-2.09516 0.28515,-2.92187 0.18055,-0.83621 0.49479,-1.55786 0.94141,-2.16602 0.43711,-0.59865 1.00163,-1.05556 1.69531,-1.36914 0.69368,-0.31358 1.55382,-0.4707 2.58008,-0.4707 z m 2.45117,2.66601 h 4.43359 c 0.51313,0.66517 0.95363,1.38682 1.32422,2.16602 0.36109,0.7792 0.54297,1.63934 0.54297,2.58008 0,1.13078 -0.22943,1.9723 -0.68555,2.52344 -0.2328,0.27557 -0.52077,0.4833 -0.86523,0.62109 -0.34446,0.13778 -0.74506,0.20508 -1.20117,0.20508 -0.80771,0 -1.43842,-0.23777 -1.89453,-0.71289 -0.46562,-0.47512 -0.80879,-1.0975 -1.02735,-1.86719 -0.18054,-0.64616 -0.31708,-1.51882 -0.41211,-2.62109 -0.095,-1.11179 -0.16733,-2.07733 -0.21484,-2.89454 z m -13.82617,15.03711 h 22.17969 v 2.67969 h -22.17969 z m 0.14258,4.4043 h 2.45117 v 0.14258 c -0.0855,0.29457 -0.17034,0.68113 -0.25586,1.15625 -0.095,0.47512 -0.14258,0.89281 -0.14258,1.2539 0,0.5749 0.0651,1.07018 0.19336,1.48829 0.12828,0.4181 0.31961,0.75821 0.57617,1.01953 0.25182,0.25656 0.60792,0.44984 1.06641,0.57812 0.45849,0.12828 1.02038,0.19141 1.68554,0.19141 h 0.54102 v -4.83203 h 2.25195 v 4.74609 h 13.66993 v 2.67969 h -13.66993 v 1.81055 h -2.25195 v -1.81055 h -0.52734 c -0.94549,0 -1.7813,-0.11638 -2.50586,-0.35156 -0.72456,-0.23519 -1.33817,-0.58823 -1.8418,-1.0586 -0.50838,-0.47037 -0.89034,-1.04519 -1.14453,-1.72461 -0.25419,-0.67942 -0.38086,-1.46308 -0.38086,-2.35156 0,-0.59865 0.0289,-1.13621 0.0859,-1.61133 0.057,-0.48462 0.1232,-0.92707 0.19922,-1.32617 z m 17.97461,14.79688 h 4.0625 v 3.40625 h -4.0625 z"
       style="opacity:1;fill:#ff8080;fill-opacity:1;stroke:none;stroke-width:1.00157475;stroke-miterlimit:4;stroke-dasharray:none;stroke-opacity:1" />
    <path
       transform="scale(0.26458333)"
       id="path939"
       d="m 46.427734,112.16211 v 31.78711 c 0,1.85853 0.695879,3.48201 1.660157,4.9082 l 26.554687,-36.69531 z"
       style="opacity:1;fill:#ff8080;fill-opacity:1;stroke:none;stroke-width:1.00157475;stroke-miterlimit:4;stroke-dasharray:none;stroke-opacity:1" />
    <path
       transform="scale(0.26458333)"
       id="path937"
       d="m 61.470703,65.376953 h -6.113281 c -4.946429,0 -8.929688,3.981306 -8.929688,8.927735 v 17.660156 z"
       style="opacity:1;fill:#ff8080;fill-opacity:1;stroke:none;stroke-width:1.00157475;stroke-miterlimit:4;stroke-dasharray:none;stroke-opacity:1" />
    <path
       transform="scale(0.26458333)"
       id="path978"
       d="M 215.18359,93.835938 V 63.296875 h -2.79882 v 27.605469 c 0,1.588575 1.24636,2.798827 2.79882,2.933594 z"
       style="opacity:1;fill:#ff8080;fill-opacity:1;stroke:none;stroke-width:1.00157475;stroke-miterlimit:4;stroke-dasharray:none;stroke-opacity:1" />
    <path
       transform="scale(0.26458333)"
       id="path1008"
       d="m 257.99805,67.732422 c -0.82437,0.0056 -1.46289,0.214768 -1.91407,0.626953 -0.45117,0.406615 -0.67578,1.027772 -0.67578,1.863281 0,0.84108 0.24646,1.512367 0.74219,2.013672 0.49574,0.495736 1.11241,0.776909 1.84766,0.84375 z"
       style="opacity:1;fill:#ff8080;fill-opacity:1;stroke:none;stroke-width:1.00157475;stroke-miterlimit:4;stroke-dasharray:none;stroke-opacity:1" />
    <path
       id="path1040"
       d="m 115.91053,25.178086 a 8.8334402,8.8334402 0 0 0 2.61304,0.395936 8.8334402,8.8334402 0 0 0 8.83371,-8.833081 8.8334402,8.8334402 0 0 0 -6.21498,-8.4358808 l -2.75702,4.3761258 h 4.74048 z"
       style="opacity:1;fill:#ffd42a;fill-opacity:1;stroke:none;stroke-width:0.26499999;stroke-miterlimit:4;stroke-dasharray:none;stroke-opacity:1" />
    <path
       id="path1038"
       d="m 117.89399,7.9299636 a 8.83344,8.83344 0 0 0 -8.2035,8.8109774 8.83344,8.83344 0 0 0 3.50785,7.033375 l 5.2444,-8.292537 h -5.19578 z"
       style="opacity:1;fill:#f9f9f9;fill-opacity:1;stroke:none;stroke-width:0.26499999;stroke-miterlimit:4;stroke-dasharray:none;stroke-opacity:1" />
    <text
       id="text1044"
       y="20.335426"
       x="128.81032"
       style="font-style:normal;font-weight:normal;font-size:14.5483942px;line-height:1.25;font-family:sans-serif;letter-spacing:0px;word-spacing:0px;fill:#f9f9f9;fill-opacity:1;stroke:none;stroke-width:0.26458332"
       xml:space="preserve"><tspan
         style="font-style:normal;font-variant:normal;font-weight:bold;font-stretch:normal;font-family:Verdana;-inkscape-font-specification:'Verdana Bold';fill:#f9f9f9;stroke-width:0.26458332"
         y="20.335426"
         x="128.81032"
         id="tspan1042">Flash</tspan></text>
    <text
       id="text1048"
       y="25.483423"
       x="156.36832"
       style="font-style:normal;font-weight:normal;font-size:11.59281921px;line-height:1.25;font-family:sans-serif;letter-spacing:0px;word-spacing:0px;fill:#ffd42a;fill-opacity:1;stroke:none;stroke-width:0.26458332"
       xml:space="preserve"><tspan
         style="font-style:normal;font-variant:normal;font-weight:bold;font-stretch:normal;font-size:5.02355528px;font-family:sans-serif;-inkscape-font-specification:'sans-serif Bold';fill:#ffd42a;stroke-width:0.26458332"
         y="25.483423"
         x="156.36832"
         id="tspan1046">news</tspan></text>
  </g>
</svg>
